<svg viewBox="0 0 191 48" fill="none" xmlns="http://www.w3.org/2000/svg" alt="BinanceLabs Logo">
    <path
        d="M38.4585 14.7516L33.3689 19.7868L24.1314 10.3261L15.0219 19.5037L9.75805 14.1284L23.8402 0L38.4585 14.7516Z"
        fill="currentColor"></path>
    <path
        d="M9.71997 33.4144L14.7443 28.314L23.8239 37.8318C27.4927 34.6936 30.3179 31.3106 33.4941 28.4147L38.4912 33.5859C33.7908 38.2945 28.9107 43.2235 24.1641 48.0001L9.71997 33.4144Z"
        fill="currentColor"></path>
    <path
        d="M72.2731 13.7935L73.7211 14.806C74.426 15.2741 74.9921 15.9246 75.3595 16.6922C75.727 17.457 75.8848 18.3088 75.8141 19.158C75.7433 20.0072 75.4466 20.8183 74.954 21.5123C74.4641 22.2036 73.7973 22.7507 73.0243 23.0936C72.0989 23.5536 71.0919 23.8285 70.0631 23.9019C66.7753 24.0027 63.4739 23.94 60.0418 23.94V4.87995C63.825 4.85546 67.6381 4.3846 71.3505 5.41885C74.8533 6.38778 75.8494 10.3206 73.4353 13.0641C73.1903 13.339 72.7794 13.4696 72.2731 13.7935ZM63.8277 20.4644C66.0459 20.3147 68.1443 20.7856 70.24 20.1542C70.6891 20.0589 71.0892 19.8058 71.3668 19.4384C71.6444 19.0709 71.7832 18.6137 71.756 18.1537C71.7696 17.906 71.7315 17.6584 71.6499 17.4243C71.5655 17.1902 71.4376 16.9779 71.2715 16.7929C71.1055 16.6105 70.9041 16.4635 70.6809 16.3601C70.4577 16.2567 70.2155 16.1995 69.9706 16.1914C67.9402 16.0553 65.888 16.1533 63.825 16.1533V20.4644H63.8277ZM63.7787 12.5688C65.5723 12.6695 67.355 12.8355 69.1132 12.4817C69.5732 12.4191 69.9923 12.1905 70.2945 11.8339C70.5966 11.4801 70.7571 11.0256 70.7462 10.5574C70.7762 10.1247 70.6455 9.69737 70.3843 9.35716C70.123 9.01422 69.7447 8.78287 69.3228 8.70122C67.502 8.26303 65.605 8.24398 63.7787 8.64951V12.5688Z"
        fill="currentColor"></path>
    <path
        d="M133.604 4.90454H137.033L145.65 16.2268L146.137 16.0663V4.94537H149.953V23.7823H146.603L137.885 12.3538L137.368 12.4954C137.161 14.3135 137.3 16.1561 137.278 17.9905C137.254 19.8222 137.278 21.7628 137.278 23.7959H133.612L133.604 4.90454Z"
        fill="currentColor"></path>
    <path
        d="M94.2535 12.3539V23.7742H90.3941V4.93726H93.9595C96.9398 8.61156 99.5989 12.5934 102.677 16.2351L103.067 16.0473V4.97264H106.771V23.7823H103.529L94.7461 12.226L94.2535 12.3539Z"
        fill="currentColor"></path>
    <path
        d="M175.195 23.7686V4.93164H189.282V8.576H179.432V12.5905H188.12V16.0307H179.432V20.3474H189.266V23.7549L175.195 23.7686Z"
        fill="currentColor"></path>
    <path
        d="M130.08 23.8749H126.013L124.187 19.6807H116.046L114.256 23.8368H110.306C113.031 17.4081 115.657 11.1455 118.303 4.86377H122.056L130.08 23.8749ZM117.568 15.9438C119.449 16.1915 120.973 16.3358 122.666 15.835L120.355 10.231H119.892L117.568 15.9438Z"
        fill="currentColor"></path>
    <path
        d="M171.264 7.51463C171.15 7.76775 171.011 8.00726 170.853 8.23316C170.255 8.91631 169.631 9.57496 168.97 10.2935C167.198 9.115 165.448 7.90384 163.235 8.33114C161.883 8.5761 160.672 9.31368 159.825 10.4024C158.927 11.5999 158.456 13.0696 158.489 14.572C158.521 16.0744 159.058 17.5196 160.007 18.6791C162.147 21.164 164.909 21.1204 169.161 18.513C169.55 18.875 169.996 19.2479 170.407 19.648C170.815 20.0481 171.112 20.3937 171.444 20.7557C168.986 24.6559 161.978 25.4997 157.933 22.1683C153.601 18.6056 153.151 11.9646 156.837 7.68338C160.318 3.64165 168.578 3.84577 171.264 7.51463Z"
        fill="currentColor"></path>
    <path
        d="M60.0118 37.1485V35.5237H133.231C133.275 36.0136 133.316 36.5008 133.376 37.1485H60.0118Z"
        fill="currentColor"></path>
    <path
        d="M167.1 29.8571C169.435 29.8571 171.61 29.838 173.801 29.8571C175.265 29.8571 176.452 30.4151 177.067 31.8576C177.682 33.3028 177.255 34.5058 176.18 35.5536C176.036 35.7169 175.905 35.8938 175.791 36.0789C175.967 36.2613 176.158 36.4246 176.359 36.5743C177.688 37.3309 178.305 38.504 178.036 39.9873C177.767 41.4706 176.721 42.5811 175.159 42.7335C172.541 43.0111 169.904 43.1254 167.095 43.3132L167.1 29.8571ZM169.275 41.1658C171.038 41.0869 172.696 41.0869 174.334 40.9099C174.754 40.8555 175.14 40.6514 175.42 40.3302C175.701 40.0091 175.856 39.5981 175.856 39.1708C175.856 38.7435 175.703 38.3298 175.42 38.0113C175.14 37.6902 174.754 37.4833 174.334 37.4316C172.642 37.2819 170.93 37.3881 169.256 37.3881L169.275 41.1658ZM169.275 35.3468C170.627 35.4067 171.983 35.3958 173.333 35.3087C174.253 35.2025 175.042 34.6337 175.088 33.5477C175.135 32.4618 174.471 31.8249 173.455 31.7596C172.086 31.6698 170.701 31.7351 169.272 31.7351V35.3468H169.275Z"
        fill="currentColor"></path>
    <path d="M84.3057 4.95361V23.8286H80.6668V4.95361H84.3057Z" fill="currentColor"></path>
    <path
        d="M164.3 43.0928H162.07L160.617 39.7805H154.235L152.678 43.1091H150.574C152.52 38.5693 154.439 34.1575 156.388 29.6367L158.426 29.5278C160.364 34.0078 162.288 38.4496 164.3 43.0928ZM159.762 37.6929L157.378 32.1978C156.507 34.2935 155.821 35.9266 155.087 37.6929H159.762Z"
        fill="currentColor"></path>
    <path
        d="M180.537 41.1549L181.528 39.8131C182.695 40.3166 183.741 40.9562 184.895 41.2311C186.046 41.506 187.23 41.5169 188.245 40.2731L188.316 38.7026C187.97 38.3924 187.584 38.1284 187.173 37.9188C186.005 37.5269 184.837 37.2438 183.67 36.8464C181.688 36.1633 180.842 34.9521 180.948 33.0905C181 32.2359 181.343 31.4248 181.92 30.7961C182.494 30.1674 183.267 29.7564 184.108 29.6339C186.201 29.2992 188.21 29.6013 190.058 31.1418L189.075 32.6006C187.159 31.8821 185.308 30.4178 183.264 32.342V34.2499C184.247 34.6419 185.24 35.0338 186.25 35.3985C186.792 35.5945 187.377 35.6543 187.916 35.853C189.862 36.5743 190.779 37.9651 190.553 39.8675C190.431 40.714 190.03 41.4924 189.418 42.083C188.806 42.6736 188.016 43.041 187.175 43.1281C184.794 43.403 182.538 43.0546 180.537 41.1549Z"
        fill="currentColor"></path>
    <path d="M5.28093 19.1228L10.2807 24.1253L5.09041 29.0978L0.0307617 23.962L5.28093 19.1228Z"
        fill="currentColor"></path>
    <path d="M24.3872 18.8967L29.1774 23.7196L23.9327 28.8446L19.2622 24.087L24.3872 18.8967Z"
        fill="currentColor"></path>
    <path d="M42.8895 28.9616L38.0721 24.1061L43.1644 19.0056L47.8893 23.9237L42.8895 28.9616Z"
        fill="currentColor"></path>
    <path d="M141.141 29.9714V41.1195H148.051V43.0383H139.053V29.9714H141.141Z" fill="currentColor"></path>
</svg>