<svg viewBox="0 0 256 40" fill="none" xmlns="http://www.w3.org/2000/svg" alt="BeInCrypto Logo">
    <path
        d="M103.979 2.39626C103.979 1.60388 104.631 0.952454 105.423 0.952454H110.975C111.768 0.952454 112.419 1.60388 112.421 2.39626V6.92007C112.421 7.71245 113.074 8.36579 113.867 8.36579H118.242C118.624 8.36877 118.989 8.52185 119.26 8.79197C119.53 9.06209 119.683 9.4276 119.686 9.8096V30.1944C119.684 30.5757 119.531 30.9408 119.262 31.2104C118.992 31.48 118.627 31.6324 118.246 31.6344H113.867C113.484 31.6364 113.117 31.7894 112.847 32.06C112.576 32.3307 112.423 32.6973 112.421 33.0801V37.6039C112.42 37.9864 112.267 38.3527 111.996 38.6232C111.726 38.8936 111.36 39.0462 110.977 39.0477H105.423C105.04 39.0462 104.674 38.8936 104.404 38.6232C104.133 38.3527 103.981 37.9864 103.979 37.6039V32.0458C103.979 31.2534 104.631 30.602 105.423 30.602H109.804C110.186 30.6 110.553 30.4473 110.823 30.177C111.094 29.9068 111.247 29.5407 111.25 29.1582V10.8325C111.248 10.4507 111.095 10.0851 110.825 9.81508C110.555 9.54511 110.19 9.39255 109.808 9.39055H105.421C105.039 9.38855 104.674 9.23599 104.404 8.96601C104.134 8.69603 103.981 8.33044 103.979 7.94864V2.39626ZM63.6992 2.39626C63.6977 2.0138 63.5451 1.64744 63.2747 1.377C63.0043 1.10656 62.6379 0.953958 62.2554 0.952454H56.6954C56.3134 0.955442 55.9479 1.10852 55.6778 1.37864C55.4077 1.64876 55.2546 2.01426 55.2516 2.39626V6.92007C55.2496 7.30288 55.0967 7.66944 54.826 7.94013C54.5553 8.21083 54.1887 8.36378 53.8059 8.36579H49.4307C49.0487 8.36877 48.6832 8.52185 48.413 8.79197C48.1429 9.06209 47.9898 9.4276 47.9869 9.8096V30.1944C47.9889 30.5757 48.1412 30.9408 48.4108 31.2104C48.6805 31.48 49.0456 31.6324 49.4269 31.6344H53.8059C54.5983 31.6344 55.2516 32.2877 55.2516 33.0801V37.602C55.2541 37.9843 55.407 38.3503 55.6771 38.6209C55.9473 38.8914 56.3131 39.0447 56.6954 39.0477H62.2554C62.6379 39.0462 63.0043 38.8936 63.2747 38.6232C63.5451 38.3527 63.6977 37.9864 63.6992 37.6039V32.0458C63.6977 31.6634 63.5451 31.297 63.2747 31.0266C63.0043 30.7561 62.6379 30.6035 62.2554 30.602H57.8764C57.4939 30.6 57.1276 30.4473 56.857 30.177C56.5863 29.9068 56.4332 29.5407 56.4307 29.1582V10.8363C56.4307 10.0439 57.084 9.39055 57.8764 9.39055H62.2573C62.6391 9.38855 63.0047 9.23599 63.2747 8.96601C63.5447 8.69603 63.6972 8.33044 63.6992 7.94864V2.39626ZM78.6935 10.9468C78.696 10.6278 78.8238 10.3225 79.0494 10.097C79.275 9.87134 79.5802 9.74351 79.8992 9.74102H92.0973C92.3316 9.74266 92.5603 9.81229 92.7558 9.94146C92.9512 10.0707 93.105 10.2538 93.1983 10.4687L95.1754 15.0363C95.2681 15.2518 95.4216 15.4356 95.6171 15.5652C95.8127 15.6948 96.0418 15.7645 96.2764 15.7658H100.37C101.029 15.7658 101.572 16.3087 101.572 16.9677V30.4515C101.57 30.7709 101.443 31.0767 101.217 31.3024C100.991 31.5282 100.685 31.6558 100.366 31.6573H95.1907C94.8714 31.6558 94.5655 31.5282 94.3398 31.3024C94.114 31.0767 93.9865 30.7709 93.985 30.4515V17.9315C93.983 17.613 93.8558 17.3081 93.631 17.0825C93.4061 16.8569 93.1015 16.7288 92.783 16.7258H87.4821C87.1636 16.7288 86.859 16.8569 86.6342 17.0825C86.4093 17.3081 86.2822 17.613 86.2802 17.9315V30.4515C86.2787 30.7709 86.1512 31.0767 85.9254 31.3024C85.6996 31.5282 85.3938 31.6558 85.0745 31.6573H79.8992C79.5799 31.6558 79.2741 31.5282 79.0483 31.3024C78.8225 31.0767 78.695 30.7709 78.6935 30.4515V10.9468ZM66.4116 10.9468C66.4141 10.6278 66.5419 10.3225 66.7675 10.097C66.9931 9.87134 67.2983 9.74351 67.6173 9.74102H72.7945C73.1133 9.74352 73.4183 9.87141 73.6436 10.0971C73.8689 10.3227 73.9963 10.6279 73.9983 10.9468V30.4515C73.9968 30.7705 73.8695 31.076 73.6442 31.3018C73.4188 31.5275 73.1135 31.6553 72.7945 31.6573H67.6173C67.298 31.6558 66.9922 31.5282 66.7664 31.3024C66.5406 31.0767 66.4131 30.7709 66.4116 30.4515V10.9468Z"
        fill="currentColor"></path>
    <path
        d="M15.8363 20.0876V20.2152C16.8649 20.5714 17.762 21.219 18.4249 22.0819C19.1182 23.0152 19.4763 24.1581 19.4363 25.3219C19.4577 26.1769 19.2934 27.0263 18.9547 27.8116C18.616 28.5969 18.1109 29.2993 17.4744 29.8705C16.1808 31.0498 14.4814 31.6831 12.7315 31.6381H0.560059V9.71425H12.3372C14.1925 9.71425 15.7411 10.2495 16.983 11.32C17.5897 11.8319 18.0728 12.4744 18.3961 13.1994C18.7193 13.9245 18.8744 14.7132 18.8496 15.5067C18.8553 16.4861 18.5674 17.4448 18.023 18.259C17.4805 19.0613 16.7216 19.6949 15.8363 20.0876ZM11.2591 14.5257H5.95816V18.421H11.2591C11.8115 18.4457 12.3487 18.2286 12.7315 17.8305C13.1011 17.4686 13.3125 16.9733 13.3201 16.4552C13.3201 15.9524 13.122 15.4705 12.7696 15.1124C12.5733 14.914 12.3372 14.7593 12.0769 14.6586C11.8166 14.5578 11.5379 14.5113 11.2591 14.5257ZM5.95816 26.861H11.7163C12.0095 26.8692 12.3012 26.8153 12.572 26.7027C12.8429 26.5901 13.0868 26.4213 13.2877 26.2076C13.6801 25.8171 13.9049 25.2876 13.9087 24.7333C13.9071 24.4834 13.8506 24.2368 13.7433 24.011C13.636 23.7853 13.4805 23.5858 13.2877 23.4267C12.8625 23.0299 12.2976 22.8176 11.7163 22.8362H5.95816V26.861ZM39.0839 31.6381H21.9982V9.71425H39.0839V14.9429H27.3944V18.0876H37.4325V22.9981H27.3944V26.4019H39.0839V31.6381ZM144.352 22.4819H149.878C149.655 25.1452 148.409 27.6186 146.402 29.3829C144.373 31.1924 141.806 32.0971 138.697 32.0971C135.299 32.0971 132.552 31.0076 130.459 28.8286C128.366 26.6476 127.318 23.9448 127.316 20.7143C127.316 17.4724 128.364 14.7486 130.457 12.5429C132.55 10.3371 135.295 9.22663 138.697 9.20758C141.73 9.20758 144.259 10.101 146.284 11.8876C148.276 13.5874 149.539 15.9877 149.811 18.5924H144.223C143.935 17.4053 143.247 16.3538 142.274 15.6152C141.23 14.8366 139.947 14.4472 138.646 14.5143C136.836 14.5352 135.408 15.1352 134.36 16.3143C133.325 17.5217 132.778 19.0715 132.825 20.661C132.783 22.2659 133.343 23.8285 134.394 25.0419C135.429 26.2114 136.863 26.7981 138.699 26.7981C140.024 26.8408 141.325 26.4377 142.394 25.6533C143.401 24.8598 144.095 23.7357 144.352 22.48V22.4819ZM157.057 31.6038H151.661V9.69901H162.975C165.33 9.69901 167.204 10.2324 168.598 11.299C169.992 12.3657 170.701 13.8705 170.722 15.8133C170.722 17.8838 170.004 19.4324 168.566 20.4571V20.5867C170.44 21.0438 171.377 22.4495 171.377 24.8019V31.6038H165.981V25.7524C165.981 24.9448 165.568 24.5429 164.741 24.5448H157.055V31.6057L157.057 31.6038ZM157.057 14.9314V19.7695H162.518C163.257 19.8076 163.985 19.5752 164.564 19.1143C165.097 18.661 165.389 17.9829 165.35 17.2838C165.367 16.9533 165.305 16.6236 165.168 16.3223C165.031 16.0211 164.824 15.757 164.564 15.5524C163.981 15.1182 163.265 14.8989 162.539 14.9314H157.057ZM186.55 9.70091H192.535L183.968 23.6267V31.6076H178.573V23.6571L169.975 9.69901H176.09L181.316 18.5238L186.55 9.70091ZM205.076 9.70091C206.096 9.67555 207.111 9.85936 208.057 10.241C209.004 10.6227 209.862 11.1941 210.579 11.92C212.063 13.379 212.804 15.2152 212.802 17.4248C212.802 19.6914 212.05 21.5581 210.547 23.019C209.831 23.7329 208.978 24.2946 208.04 24.6703C207.101 25.0461 206.096 25.2282 205.086 25.2057H199.156V31.6152H193.764V9.70091H205.076ZM199.156 20.0933H204.587C205.297 20.1124 205.987 19.8552 206.512 19.3752C207.044 18.88 207.331 18.1752 207.297 17.4495C207.306 17.1065 207.236 16.766 207.093 16.4542C206.95 16.1425 206.737 15.8678 206.47 15.6514C205.956 15.1755 205.276 14.918 204.575 14.9333H199.156V20.0952V20.0933ZM213.347 9.70091H232.935V14.9276H225.838V31.6019H220.444V14.9314H213.347V9.70091ZM252.636 28.8267C250.501 31.0038 247.701 32.0933 244.232 32.0971C240.766 32.101 237.966 31.0114 235.834 28.8286C233.697 26.6267 232.629 23.9219 232.629 20.7143C232.629 17.5086 233.697 14.7848 235.834 12.5429C237.968 10.32 240.768 9.20758 244.232 9.20758C247.699 9.20758 250.499 10.32 252.636 12.541C254.771 14.7657 255.84 17.4895 255.84 20.7162C255.84 23.941 254.771 26.6438 252.636 28.8267ZM244.232 26.8C246.088 26.8 247.57 26.2 248.68 25C249.783 23.8242 250.381 22.2631 250.347 20.6514C250.368 19.8529 250.232 19.058 249.946 18.3122C249.66 17.5663 249.23 16.8842 248.68 16.3048C247.59 15.1029 246.109 14.5029 244.232 14.5048C242.358 14.5048 240.865 15.1067 239.752 16.3048C238.661 17.4846 238.074 19.0447 238.118 20.6514C238.082 22.2573 238.668 23.8151 239.752 25C240.865 26.2 242.358 26.8 244.232 26.8Z"
        fill="currentColor"></path>
</svg>