<svg viewBox="0 0 222 48" fill="none" xmlns="http://www.w3.org/2000/svg" alt="CryptoNews Logo">
    <path
        d="M42.411 11.78L22.701 0.39003C22.251 0.13003 21.751 3.05176e-05 21.231 3.05176e-05C20.711 3.05176e-05 20.211 0.14003 19.761 0.39003L18.061 1.37003L1.53104 10.93C1.08104 11.19 0.711035 11.56 0.461035 12C0.211035 12.44 0.0610352 12.95 0.0610352 13.47V34.53C0.0610352 35.04 0.201035 35.55 0.451035 36C0.711035 36.45 1.08104 36.82 1.52104 37.07L3.63104 38.29L4.29104 38.67L19.761 47.61C20.211 47.87 20.711 48 21.231 48C21.751 48 22.251 47.86 22.701 47.61L42.411 36.23L33.941 31.34L22.691 37.83C22.241 38.09 21.741 38.22 21.221 38.22C20.701 38.22 20.201 38.08 19.751 37.83L13.871 34.43L12.751 33.78L11.651 33.14L9.99104 32.18C9.54104 31.92 9.17103 31.55 8.92103 31.11C8.66103 30.66 8.53104 30.16 8.53104 29.64V18.36C8.53104 17.84 8.67103 17.34 8.92103 16.89C9.18103 16.44 9.55104 16.07 9.99104 15.82L17.921 11.23L19.761 10.17C20.211 9.91003 20.711 9.78003 21.231 9.78003C21.751 9.78003 22.251 9.92003 22.701 10.17L33.941 16.66L42.411 11.77V11.78Z"
        fill="currentColor"></path>
    <path d="M21.231 14.22L12.761 19.11V28.89L21.231 33.78L29.7009 28.89V19.11L21.231 14.22Z"
        fill="currentColor"></path>
    <path
        d="M64.251 32.4302C62.801 31.6602 61.631 30.5502 60.801 29.0902C59.971 27.7002 59.561 26.1002 59.561 24.2902C59.561 22.4802 59.971 20.8802 60.801 19.4902C61.631 18.1002 62.801 16.9802 64.251 16.1502C65.701 15.3802 67.361 14.9702 69.221 14.9702C70.741 14.9702 72.191 15.2502 73.431 15.8102C74.671 16.3702 75.711 17.1302 76.611 18.1802L73.991 20.6202C72.821 19.2302 71.301 18.5302 69.501 18.5302C68.391 18.5302 67.431 18.8102 66.531 19.3002C65.631 19.7902 65.011 20.4802 64.531 21.3202C64.051 22.2302 63.771 23.2002 63.771 24.3102C63.771 25.4202 64.051 26.4002 64.531 27.3002C65.011 28.2102 65.701 28.8302 66.531 29.3202C67.431 29.8102 68.391 30.0902 69.501 30.0902C71.301 30.0902 72.821 29.3902 73.991 27.9302L76.611 30.3702C75.781 31.4102 74.681 32.1802 73.431 32.7402C72.191 33.3002 70.741 33.5802 69.221 33.5802C67.421 33.6502 65.771 33.2302 64.251 32.4702V32.4302Z"
        fill="currentColor"></path>
    <path
        d="M84.2111 19.7502C85.0411 19.4002 85.9411 19.2602 86.9711 19.2602V22.9502C86.5611 22.9502 86.2111 22.8802 86.0711 22.8802C84.9011 22.8802 84.0711 23.2302 83.3811 23.8502C82.7611 24.4802 82.4111 25.4502 82.4111 26.7702V33.3202H78.4011V19.4602H82.2011V21.2702C82.7511 20.5702 83.3711 20.0902 84.2011 19.7402L84.2111 19.7502Z"
        fill="currentColor"></path>
    <path
        d="M102.781 19.4802L96.5609 34.1702C95.9409 35.7702 95.1809 36.8902 94.2109 37.5102C93.3109 38.1402 92.1409 38.4802 90.8309 38.4802C90.1409 38.4802 89.3809 38.3402 88.6909 38.1302C88.0009 37.9202 87.4509 37.5702 86.9609 37.2202L88.4109 34.3702C88.6909 34.6502 89.1009 34.8602 89.4509 35.0002C89.8609 35.1402 90.2809 35.2102 90.6209 35.2102C91.1709 35.2102 91.5909 35.0702 91.9309 34.7902C92.2809 34.5102 92.5509 34.0902 92.8309 33.4702L93.1109 33.4002L87.1709 19.4702H91.2409L95.1109 28.8702L98.9809 19.4702H102.781V19.4802Z"
        fill="currentColor"></path>
    <path
        d="M115.421 20.1003C116.461 20.7303 117.281 21.4903 117.911 22.6103C118.531 23.6503 118.811 24.9103 118.811 26.3703C118.811 27.8303 118.531 29.0203 117.911 30.1303C117.291 31.1703 116.531 32.0103 115.421 32.6403C114.381 33.2003 113.211 33.5503 111.971 33.5503C110.241 33.5503 108.861 32.9903 107.831 31.8803V38.2903H103.821V19.4803H107.621V21.0803C108.591 19.9003 110.041 19.2703 111.901 19.2703C113.211 19.2703 114.321 19.5503 115.421 20.1103V20.1003ZM113.761 29.1503C114.381 28.4503 114.731 27.5503 114.731 26.3603C114.731 25.1703 114.381 24.2703 113.761 23.5703C113.141 22.8703 112.241 22.5303 111.271 22.5303C110.231 22.5303 109.411 22.8803 108.781 23.5703C108.161 24.2703 107.811 25.1703 107.811 26.3603C107.811 27.5503 108.161 28.4503 108.781 29.1503C109.401 29.8503 110.301 30.1903 111.271 30.1903C112.241 30.1903 113.071 29.8403 113.761 29.1503Z"
        fill="currentColor"></path>
    <path
        d="M129.651 32.6402C129.241 32.9202 128.751 33.1302 128.201 33.2702C127.651 33.4102 127.031 33.4802 126.401 33.4802C124.741 33.4802 123.501 33.0602 122.601 32.2302C121.701 31.3902 121.291 30.1402 121.291 28.5402V22.8302H119.151V19.7702H121.291V16.4302H125.301V19.7702H128.681V22.8302H125.301V28.4702C125.301 29.0302 125.441 29.5102 125.711 29.7902C125.991 30.1402 126.401 30.2802 126.951 30.2802C127.571 30.2802 128.121 30.1402 128.541 29.7902L129.641 32.6402H129.651Z"
        fill="currentColor"></path>
    <path
        d="M133.451 32.5702C132.281 31.9402 131.381 31.1102 130.761 30.0602C130.141 28.9502 129.791 27.7602 129.791 26.3702C129.791 24.9802 130.141 23.7902 130.761 22.6802C131.381 21.5702 132.281 20.7302 133.451 20.1702C134.621 19.5402 135.871 19.2602 137.321 19.2602C138.771 19.2602 140.081 19.5402 141.191 20.1702C142.361 20.8002 143.191 21.6302 143.881 22.6802C144.501 23.7902 144.851 24.9802 144.851 26.3702C144.851 27.7602 144.501 28.9502 143.881 30.0602C143.261 31.1702 142.361 32.0102 141.191 32.5702C140.081 33.2002 138.771 33.4802 137.321 33.4802C135.871 33.4802 134.561 33.2002 133.451 32.5702ZM139.801 29.1602C140.421 28.4602 140.771 27.5602 140.771 26.3702C140.771 25.1802 140.421 24.2802 139.801 23.5802C139.181 22.8802 138.281 22.5402 137.311 22.5402C136.271 22.5402 135.451 22.8902 134.751 23.5802C134.051 24.2702 133.781 25.1802 133.781 26.3702C133.781 27.5602 134.131 28.4602 134.751 29.1602C135.441 29.8602 136.271 30.2002 137.311 30.2002C138.351 30.2002 139.171 29.8502 139.801 29.1602Z"
        fill="currentColor"></path>
    <path
        d="M168.321 15.3003V33.3403H164.941L156.031 22.4103V33.3403H151.961V15.3003H155.341L164.251 26.2303V15.3003H168.331H168.321Z"
        fill="currentColor"></path>
    <path
        d="M185.041 27.4801H174.681C174.891 28.3201 175.301 29.0101 175.991 29.5001C176.681 29.9901 177.581 30.2701 178.611 30.2701C179.301 30.2701 179.991 30.1301 180.541 29.9201C181.091 29.7101 181.581 29.3601 182.061 28.8801L184.201 31.1801C182.891 32.6401 181.021 33.4101 178.541 33.4101C177.021 33.4101 175.641 33.1301 174.471 32.5001C173.301 31.8701 172.331 31.0401 171.711 29.9901C171.091 28.8801 170.741 27.6901 170.741 26.3001C170.741 24.9101 171.091 23.7201 171.711 22.6101C172.331 21.5001 173.231 20.6601 174.331 20.0301C175.441 19.4001 176.681 19.1201 178.061 19.1201C179.441 19.1201 180.621 19.4001 181.721 20.0301C182.831 20.5901 183.651 21.4201 184.271 22.5401C184.891 23.6501 185.171 24.9101 185.171 26.3001C185.101 26.5101 185.101 26.8601 185.031 27.4801H185.041ZM175.721 23.0201C175.101 23.5101 174.751 24.2001 174.611 25.1101H181.381C181.241 24.2001 180.901 23.5101 180.271 23.0201C179.651 22.5301 178.891 22.2501 177.991 22.2501C177.091 22.2501 176.331 22.5301 175.711 23.0201H175.721Z"
        fill="currentColor"></path>
    <path
        d="M208.931 19.4802L203.961 33.3402H200.161L197.051 24.7702L193.871 33.3402H190.071L185.031 19.4802H188.761L192.011 28.8102L195.391 19.4802H198.771L202.021 28.8102L205.341 19.4802H208.931Z"
        fill="currentColor"></path>
    <path
        d="M211.211 33.0502C210.101 32.7702 209.281 32.4202 208.591 32.0102L209.901 29.1602C210.521 29.5802 211.281 29.8602 212.111 30.1302C213.011 30.4102 213.841 30.4802 214.671 30.4802C216.331 30.4802 217.231 30.0602 217.231 29.2302C217.231 28.8102 217.021 28.5302 216.541 28.3902C216.061 28.2502 215.371 28.0402 214.401 27.9702C213.301 27.8302 212.331 27.6202 211.641 27.3402C210.881 27.1302 210.261 26.7102 209.711 26.1602C209.161 25.6002 208.881 24.7702 208.881 23.7202C208.881 22.8102 209.161 22.0502 209.641 21.4202C210.121 20.7902 210.881 20.2402 211.851 19.8202C212.821 19.4702 213.921 19.2602 215.231 19.2602C216.201 19.2602 217.161 19.4002 218.131 19.6102C219.101 19.8202 219.861 20.1002 220.551 20.5202L219.241 23.3802C218.071 22.6802 216.681 22.3402 215.301 22.3402C214.471 22.3402 213.781 22.4802 213.371 22.6902C212.961 22.9002 212.751 23.2502 212.751 23.6002C212.751 24.0202 212.961 24.3002 213.441 24.5102C213.921 24.6502 214.611 24.8602 215.651 25.0002C216.761 25.2102 217.721 25.4202 218.411 25.6302C219.101 25.8402 219.721 26.2602 220.271 26.8102C220.821 27.3702 221.031 28.1302 221.031 29.1802C221.031 30.0202 220.751 30.7802 220.271 31.4802C219.791 32.1802 219.031 32.6602 218.061 33.0102C217.091 33.3602 215.921 33.5702 214.611 33.5702C213.441 33.5002 212.331 33.3602 211.231 33.0802L211.211 33.0502Z"
        fill="currentColor"></path>
</svg>